<?xml version="1.0" standalone="no"?>
<!DOCTYPE svg PUBLIC "-//W3C//DTD SVG 20010904//EN"
 "http://www.w3.org/TR/2001/REC-SVG-20010904/DTD/svg10.dtd">
<svg version="1.0" xmlns="http://www.w3.org/2000/svg"
 width="92.000000pt" height="90.000000pt" viewBox="0 0 92.000000 90.000000"
 preserveAspectRatio="xMidYMid meet">

<g transform="translate(0.000000,90.000000) scale(0.100000,-0.100000)"
fill="#000000" stroke="none">
<path d="M396 859 c-279 -40 -439 -345 -316 -603 33 -70 111 -151 178 -185
l42 -21 0 52 c0 29 12 100 26 158 18 75 23 118 19 151 -11 82 34 149 91 135
37 -10 46 -45 28 -108 -28 -100 -28 -124 -5 -147 66 -66 171 32 172 164 1 70
-25 123 -77 153 -51 30 -158 28 -201 -4 -66 -49 -95 -128 -74 -199 19 -62 22
-89 13 -103 -14 -20 -40 -3 -67 42 -68 116 -25 264 97 331 48 27 62 30 143 30
73 0 98 -4 131 -22 48 -25 101 -82 120 -129 16 -39 18 -124 4 -174 -36 -132
-167 -211 -264 -161 -22 12 -41 20 -42 18 -1 -1 -9 -29 -19 -62 -9 -33 -25
-75 -36 -94 -28 -48 -15 -56 94 -56 110 0 171 18 250 75 169 121 224 347 130
534 -55 108 -184 206 -293 221 -25 4 -54 8 -65 9 -11 2 -47 -1 -79 -5z"/>
</g>
</svg>
